Coordinates
version=1
nRows=34
nColumns=38
inDegrees=no

Units are S.I. units (second, meters, Newtons, ...)
If the header above contains a line with 'inDegrees', this indicates whether rotational values are in degrees (yes) or radians (no).

endheader
time	pelvis_tilt	pelvis_list	pelvis_rotation	pelvis_tx	pelvis_ty	pelvis_tz	hip_flexion_r	hip_adduction_r	hip_rotation_r	knee_angle_r	ankle_angle_r	subtalar_angle_r	mtp_angle_r	hip_flexion_l	hip_adduction_l	hip_rotation_l	knee_angle_l	ankle_angle_l	subtalar_angle_l	mtp_angle_l	lumbar_extension	lumbar_bending	lumbar_rotation	arm_flex_r	arm_add_r	arm_rot_r	elbow_flex_r	pro_sup_r	wrist_flex_r	wrist_dev_r	arm_flex_l	arm_add_l	arm_rot_l	elbow_flex_l	pro_sup_l	wrist_flex_l	wrist_dev_l
0.43	2.85926	1.53213	-1.40033	0.686374	-0.0478756	0.928274	-0.235709	-0.078055	-0.161704	0.463123	0.281669	0	0	0.454093	0.00101635	-0.312716	0.323687	0.225468	0	0	-0.149359	-0.0223201	0.0709545	0.0461985	-0.0642829	-0.316779	0.204311	1.53968	0	0	-0.210351	-0.502764	0.627934	0.720925	0.599608	0	0
0.44	2.96483	1.53246	-1.51314	0.685985	-0.0327582	0.927413	-0.22631	-0.0899956	-0.148619	0.508254	0.264558	0	0	0.455369	0.00227399	-0.317772	0.352472	0.20945	0	0	-0.142827	-0.0299997	0.0770412	0.0413222	-0.0639834	-0.31961	0.200049	1.54493	0	0	-0.225141	-0.505568	0.627403	0.727965	0.589089	0	0
0.45	3.10441	1.53285	-1.65657	0.68514	-0.0180138	0.92697	-0.211348	-0.102061	-0.135594	0.560054	0.23922	0	0	0.454826	0.00735069	-0.318729	0.372514	0.178809	0	0	-0.136591	-0.0387541	0.0791176	0.0373403	-0.0632326	-0.321657	0.197295	1.54913	0	0	-0.238627	-0.507854	0.625853	0.733447	0.581223	0	0
0.46	-2.97434	1.53506	-1.85999	0.683824	-0.00388884	0.926804	-0.186723	-0.114201	-0.122383	0.6209	0.205854	0	0	0.45889	0.0157163	-0.314997	0.394911	0.153683	0	0	-0.128628	-0.0491097	0.0762577	0.0339901	-0.0613637	-0.325476	0.196956	1.55453	0	0	-0.249911	-0.511319	0.627351	0.739335	0.568355	0	0
0.47	-2.70483	1.53559	-2.12357	0.682169	0.00982434	0.926955	-0.156321	-0.126195	-0.11026	0.688347	0.164482	0	0	0.465156	0.0272434	-0.307039	0.421617	0.143625	0	0	-0.121332	-0.060897	0.0692714	0.0310089	-0.0582577	-0.332458	0.198403	1.5591	0	0	-0.259196	-0.516735	0.630903	0.747118	0.553468	0	0
0.48	-2.45458	1.5324	-2.36566	0.680488	0.0234463	0.927307	-0.123433	-0.137949	-0.100639	0.759619	0.115518	0	0	0.469965	0.0399798	-0.298362	0.449948	0.142569	0	0	-0.115663	-0.0732375	0.0606105	0.0285093	-0.0547311	-0.339138	0.198381	1.56149	0	0	-0.267758	-0.523827	0.634889	0.757159	0.542859	0	0
0.49	-2.33538	1.52577	-2.47677	0.678975	0.0370882	0.928039	-0.0935471	-0.147802	-0.0920437	0.829274	0.0619354	0	0	0.467577	0.0515155	-0.291632	0.473806	0.141217	0	0	-0.114191	-0.0842699	0.052698	0.0265122	-0.0519182	-0.342828	0.196915	1.56299	0	0	-0.274324	-0.530769	0.639055	0.765644	0.537755	0	0
0.5	-2.26079	1.51957	-2.54401	0.677605	0.0506815	0.928768	-0.0621288	-0.155393	-0.0828735	0.896698	0.00223768	0	0	0.462352	0.0610343	-0.288165	0.493388	0.138388	0	0	-0.112415	-0.0938773	0.0458098	0.0248041	-0.0496417	-0.345366	0.19445	1.5639	0	0	-0.280325	-0.538421	0.644913	0.774735	0.533522	0	0
0.51	-2.21803	1.51368	-2.58008	0.676194	0.0642021	0.929603	-0.0305259	-0.161433	-0.0737475	0.95987	-0.0617422	0	0	0.452766	0.0693755	-0.288204	0.506282	0.136121	0	0	-0.11078	-0.102073	0.0401984	0.0230649	-0.048194	-0.346733	0.19199	1.56433	0	0	-0.285034	-0.5456	0.651596	0.782814	0.530804	0	0
0.52	-2.17863	1.50845	-2.61331	0.674684	0.07747	0.93049	0.00223604	-0.166897	-0.0647131	1.01852	-0.129106	0	0	0.440753	0.077165	-0.291043	0.513499	0.135459	0	0	-0.108346	-0.109475	0.0358671	0.0210091	-0.047242	-0.34758	0.190492	1.56474	0	0	-0.288671	-0.552287	0.657519	0.790774	0.528751	0	0
0.53	-2.12558	1.50399	-2.66068	0.673113	0.0903731	0.931357	0.0365595	-0.171416	-0.0544824	1.07248	-0.195426	0	0	0.428556	0.0850721	-0.29474	0.516786	0.135328	0	0	-0.104383	-0.116705	0.0323756	0.0188588	-0.0463698	-0.348966	0.189224	1.56428	0	0	-0.291108	-0.557989	0.661556	0.797746	0.526931	0	0
0.54	-2.07757	1.50016	-2.70323	0.671527	0.102994	0.932337	0.0698574	-0.174379	-0.0441943	1.12053	-0.253495	0	0	0.415657	0.0931531	-0.296878	0.516995	0.135479	0	0	-0.100051	-0.123087	0.0292382	0.0166883	-0.0456889	-0.350697	0.189345	1.56355	0	0	-0.292649	-0.562036	0.662569	0.802278	0.526847	0	0
0.55	-2.04762	1.49693	-2.72776	0.670038	0.115442	0.93353	0.101553	-0.174904	-0.033296	1.16534	-0.289517	0	0	0.40145	0.101298	-0.29547	0.515387	0.137215	0	0	-0.0965229	-0.128286	0.0256996	0.0147849	-0.0449369	-0.352295	0.190562	1.56285	0	0	-0.294221	-0.5647	0.659829	0.805435	0.528444	0	0
0.56	-2.02991	1.49415	-2.74041	0.6687	0.127754	0.934929	0.132522	-0.173245	-0.0215524	1.20841	-0.292467	0	0	0.386261	0.109801	-0.289968	0.512974	0.142146	0	0	-0.0936169	-0.132764	0.0215956	0.0134022	-0.0439484	-0.353394	0.192519	1.56135	0	0	-0.297078	-0.565998	0.651042	0.808278	0.535261	0	0
0.57	-2.03066	1.49241	-2.73398	0.667389	0.139877	0.936537	0.161735	-0.169135	-0.0109654	1.24719	-0.27037	0	0	0.370297	0.117526	-0.280458	0.511882	0.149567	0	0	-0.0920042	-0.135462	0.0164522	0.0132078	-0.0432229	-0.353551	0.19362	1.55973	0	0	-0.299157	-0.566807	0.64329	0.810373	0.539583	0	0
0.58	-2.05824	1.49144	-2.70037	0.666102	0.151866	0.938481	0.188059	-0.162598	-0.00162465	1.27916	-0.238285	0	0	0.35089	0.123975	-0.269917	0.507813	0.157369	0	0	-0.0925918	-0.136317	0.0106561	0.014675	-0.0429989	-0.352368	0.192198	1.55905	0	0	-0.300681	-0.566669	0.634157	0.812088	0.542255	0	0
0.59	-2.10343	1.49083	-2.64906	0.664843	0.163734	0.940654	0.211755	-0.15465	0.00682132	1.30407	-0.205146	0	0	0.328159	0.129126	-0.260411	0.499566	0.164499	0	0	-0.0947608	-0.135906	0.00489846	0.0172574	-0.0429893	-0.350714	0.189382	1.5575	0	0	-0.300998	-0.566219	0.625573	0.814179	0.541488	0	0
0.6	-2.15437	1.49017	-2.59212	0.663563	0.175498	0.94294	0.23369	-0.146649	0.0142657	1.32232	-0.176177	0	0	0.302876	0.13357	-0.252456	0.486789	0.170362	0	0	-0.0976078	-0.134765	-0.000473351	0.0202597	-0.0431779	-0.347607	0.186277	1.55432	0	0	-0.299702	-0.565832	0.619985	0.816146	0.538019	0	0
0.61	-2.20967	1.48955	-2.53062	0.662219	0.187202	0.945313	0.253708	-0.138727	0.0204841	1.33391	-0.151935	0	0	0.27572	0.137243	-0.245561	0.470424	0.174347	0	0	-0.100836	-0.132819	-0.00556041	0.0233809	-0.0437058	-0.34412	0.182398	1.55142	0	0	-0.296577	-0.56563	0.61802	0.817696	0.531948	0	0
0.62	-2.27754	1.48936	-2.45606	0.660789	0.19879	0.947797	0.271643	-0.129727	0.0261987	1.33959	-0.130341	0	0	0.247374	0.139253	-0.238455	0.452717	0.175716	0	0	-0.105045	-0.129246	-0.0109304	0.0268271	-0.0445645	-0.3414	0.177972	1.54938	0	0	-0.292935	-0.564962	0.615042	0.820012	0.525941	0	0
0.63	-2.34109	1.48986	-2.38583	0.659261	0.210166	0.950137	0.291054	-0.121205	0.0312224	1.34118	-0.113945	0	0	0.220183	0.140244	-0.232005	0.434351	0.176098	0	0	-0.108647	-0.124623	-0.0160177	0.0300765	-0.0456129	-0.339907	0.174606	1.54678	0	0	-0.288369	-0.564267	0.613453	0.822317	0.521588	0	0
0.64	-2.38765	1.49079	-2.33227	0.657673	0.22137	0.952126	0.314074	-0.114478	0.0352883	1.34032	-0.105958	0	0	0.195208	0.141353	-0.226109	0.416182	0.176755	0	0	-0.110907	-0.120392	-0.0215299	0.0328504	-0.0464473	-0.339344	0.172431	1.54404	0	0	-0.283813	-0.564001	0.611445	0.825376	0.520103	0	0
0.65	-2.45104	1.49181	-2.26126	0.656016	0.232505	0.954069	0.331431	-0.106701	0.0375177	1.33233	-0.0922919	0	0	0.169861	0.14078	-0.220038	0.3985	0.178068	0	0	-0.114187	-0.114704	-0.0279628	0.035589	-0.0475112	-0.339911	0.170459	1.54361	0	0	-0.279119	-0.562911	0.6076	0.827605	0.522899	0	0
0.66	-2.513	1.49283	-2.19066	0.654321	0.243513	0.955783	0.346622	-0.0999596	0.0374737	1.31922	-0.0765862	0	0	0.145692	0.139795	-0.211908	0.382602	0.179366	0	0	-0.117315	-0.10896	-0.0349569	0.0379553	-0.0482841	-0.342446	0.169068	1.54445	0	0	-0.273754	-0.562393	0.604064	0.830148	0.529551	0	0
0.67	-2.55778	1.49369	-2.13696	0.652652	0.254444	0.957131	0.363234	-0.0956151	0.0364859	1.30378	-0.0634015	0	0	0.122695	0.139769	-0.203277	0.366823	0.181291	0	0	-0.119706	-0.104475	-0.0424746	0.0399864	-0.0486341	-0.345401	0.168359	1.54538	0	0	-0.268896	-0.562786	0.600068	0.833861	0.538372	0	0
0.68	-2.59073	1.49437	-2.09485	0.651018	0.265322	0.958183	0.38006	-0.0928309	0.0350965	1.28547	-0.0528065	0	0	0.100337	0.140342	-0.194407	0.351021	0.184068	0	0	-0.121763	-0.10096	-0.0503851	0.0416888	-0.0487964	-0.348049	0.167855	1.54655	0	0	-0.264004	-0.563984	0.596994	0.837879	0.548599	0	0
0.69	-2.62762	1.4951	-2.04857	0.64939	0.276117	0.959079	0.395251	-0.0904819	0.0326312	1.26318	-0.0411124	0	0	0.0783369	0.140259	-0.185112	0.335621	0.187659	0	0	-0.124084	-0.097072	-0.0583114	0.0431721	-0.0491184	-0.349911	0.167364	1.54851	0	0	-0.258242	-0.565199	0.595123	0.840938	0.560513	0	0
0.7	-2.68717	1.49572	-1.97987	0.647729	0.286734	0.960006	0.406547	-0.0873933	0.0285341	1.236	-0.0251105	0	0	0.0559849	0.138345	-0.175401	0.320433	0.19167	0	0	-0.127742	-0.0912047	-0.0653954	0.0449027	-0.050073	-0.351359	0.166821	1.55095	0	0	-0.250214	-0.565177	0.59455	0.841752	0.571586	0	0
0.71	-2.70869	1.49618	-1.94952	0.646132	0.297356	0.960503	0.419832	-0.087638	0.0252579	1.20874	-0.0085008	0	0	0.0347872	0.139261	-0.164474	0.304895	0.195387	0	0	-0.130044	-0.0884377	-0.0722914	0.0463054	-0.0503647	-0.352072	0.166115	1.55198	0	0	-0.24257	-0.566415	0.594904	0.843802	0.581426	0	0
0.72	-2.71869	1.49646	-1.93159	0.644637	0.307917	0.960807	0.432972	-0.0889617	0.0222426	1.17931	0.00585569	0	0	0.0137223	0.140899	-0.153113	0.289174	0.198888	0	0	-0.132294	-0.0866751	-0.0780273	0.0477187	-0.0503734	-0.351965	0.165334	1.55021	0	0	-0.234016	-0.567831	0.596812	0.845339	0.59001	0	0
0.73	-2.7273	1.49667	-1.91603	0.643273	0.318449	0.960971	0.44503	-0.0901664	0.0196416	1.14676	0.0184212	0	0	-0.00721261	0.142238	-0.14233	0.273667	0.20192	0	0	-0.134688	-0.0851163	-0.0827684	0.0491096	-0.0502741	-0.34966	0.164783	1.54702	0	0	-0.225047	-0.568944	0.598486	0.846178	0.598191	0	0
0.74	-2.72524	1.49671	-1.91186	0.642028	0.329	0.960916	0.456747	-0.0923257	0.0176136	1.11204	0.0290166	0	0	-0.0283153	0.144155	-0.13174	0.257525	0.204748	0	0	-0.136907	-0.0846632	-0.0868794	0.0504576	-0.049678	-0.3462	0.163939	1.54174	0	0	-0.216434	-0.570217	0.599292	0.847436	0.604114	0	0
0.75	-2.73349	1.49655	-1.8983	0.640847	0.339502	0.960806	0.465925	-0.0939332	0.014914	1.07345	0.0392829	0	0	-0.0501456	0.145118	-0.121758	0.240793	0.207484	0	0	-0.13974	-0.0834757	-0.0895109	0.0515143	-0.0492048	-0.341983	0.163929	1.53553	0	0	-0.206423	-0.570823	0.60207	0.847059	0.610182	0	0
0.76	-2.75234	1.49649	-1.8751	0.639743	0.349976	0.960631	0.473001	-0.0945788	0.0114007	1.03072	0.0502397	0	0	-0.0720705	0.144912	-0.113215	0.224219	0.210406	0	0	-0.142881	-0.0813422	-0.090667	0.0526066	-0.0491739	-0.336825	0.163719	1.52946	0	0	-0.195133	-0.57017	0.605611	0.844303	0.618192	0	0
